<svg class="main-svg" xmlns="http://www.w3.org/2000/svg" xmlns:xlink="http://www.w3.org/1999/xlink" width="700" height="450" style="" viewBox="0 0 700 450"><rect x="0" y="0" width="700" height="450" style="fill: rgb(255, 255, 255); fill-opacity: 1;"/><defs id="defs-511362"><g class="clips"><clipPath id="clip511362xyplot" class="plotclip"><rect width="580" height="330"/></clipPath><clipPath class="axesclip" id="clip511362x"><rect x="60" y="0" width="580" height="450"/></clipPath><clipPath class="axesclip" id="clip511362y"><rect x="0" y="60" width="700" height="330"/></clipPath><clipPath class="axesclip" id="clip511362xy"><rect x="60" y="60" width="580" height="330"/></clipPath></g><g class="gradients"/></defs><g class="bglayer"><rect class="bg" x="60" y="60" width="580" height="330" style="fill: rgb(255, 255, 255); fill-opacity: 1; stroke-width: 0;"/></g><g class="layer-below"><g class="imagelayer"/><g class="shapelayer"/></g><g class="cartesianlayer"><g class="subplot xy"><g class="layer-subplot"><g class="shapelayer"/><g class="imagelayer"/></g><g class="gridlayer"><g class="x"><path class="xgrid crisp" d="M0,60v330" transform="translate(176.12,0)" style="stroke: rgb(238, 238, 238); stroke-opacity: 1; stroke-width: 1px;"/><path class="xgrid crisp" d="M0,60v330" transform="translate(292.23,0)" style="stroke: rgb(238, 238, 238); stroke-opacity: 1; stroke-width: 1px;"/><path class="xgrid crisp" d="M0,60v330" transform="translate(408.35,0)" style="stroke: rgb(238, 238, 238); stroke-opacity: 1; stroke-width: 1px;"/><path class="xgrid crisp" d="M0,60v330" transform="translate(524.46,0)" style="stroke: rgb(238, 238, 238); stroke-opacity: 1; stroke-width: 1px;"/></g><g class="y"><path class="ygrid crisp" d="M60,0h580" transform="translate(0,311.76)" style="stroke: rgb(238, 238, 238); stroke-opacity: 1; stroke-width: 1px;"/><path class="ygrid crisp" d="M60,0h580" transform="translate(0,250.03)" style="stroke: rgb(238, 238, 238); stroke-opacity: 1; stroke-width: 1px;"/><path class="ygrid crisp" d="M60,0h580" transform="translate(0,188.29)" style="stroke: rgb(238, 238, 238); stroke-opacity: 1; stroke-width: 1px;"/><path class="ygrid crisp" d="M60,0h580" transform="translate(0,126.56)" style="stroke: rgb(238, 238, 238); stroke-opacity: 1; stroke-width: 1px;"/><path class="ygrid crisp" d="M60,0h580" transform="translate(0,64.82)" style="stroke: rgb(238, 238, 238); stroke-opacity: 1; stroke-width: 1px;"/></g></g><g class="zerolinelayer"><path class="xzl zl crisp" d="M0,60v330" transform="translate(60,0)" style="stroke: rgb(68, 68, 68); stroke-opacity: 1; stroke-width: 1px;"/><path class="yzl zl crisp" d="M60,0h580" transform="translate(0,373.5)" style="stroke: rgb(68, 68, 68); stroke-opacity: 1; stroke-width: 1px;"/></g><path class="xlines-below"/><path class="ylines-below"/><g class="overlines-below"/><g class="xaxislayer-below"/><g class="yaxislayer-below"/><g class="overaxes-below"/><g class="plot" transform="translate(60, 60)" clip-path="url(#clip511362xyplot)"><g class="scatterlayer mlayer"><g class="trace scatter trace7d7233" style="stroke-miterlimit: 2; opacity: 1;"><path class="js-line" d="M0,313.5L0.58,271.35L1.16,256.11L1.74,267.48L2.32,256.19L4.06,249.46L4.64,249.92L5.23,248.3L5.81,249.38L6.39,247.6L6.97,252.71L8.13,244.82L8.71,247.22L9.87,233.68L10.45,237.47L11.61,274.13L12.19,261.06L13.35,246.75L13.93,237.32L14.51,229.89L15.1,242.73L15.68,239.25L16.26,242.81L17.42,230.59L18,242.19L18.58,245.98L19.16,220.07L19.74,217.13L20.32,224.55L21.48,206.22L22.06,213.19L23.22,243.12L23.8,211.56L26.13,205.68L26.71,204.45L27.29,201.51L27.87,203.59L28.45,203.29L29.03,198.95L30.19,209.78L30.77,198.72L31.35,199.03L31.93,204.14L34.25,187.2L34.83,186.89L35.42,187.74L36,191.61L36.58,202.36L37.16,191.76L37.74,188.82L38.32,193.39L38.9,205.76L39.48,185.26L40.06,180.08L40.64,182.25L41.22,182.48L41.8,184.1L43.54,167.17L44.12,172.35L44.7,170.57L45.29,171.42L46.45,167.94L47.03,187.35L47.61,197.41L48.19,187.51L49.93,165.08L50.51,170.41L52.83,162.83L53.41,169.1L56.32,158.43L56.9,162.14L57.48,163.14L58.06,157.96L58.64,162.22L59.22,157.81L59.8,154.56L60.38,158.58L60.96,156.34L61.54,162.14L62.7,170.88L63.28,190.52L63.86,222.7L64.44,193.39L65.61,167.55L66.19,164.38L66.77,167.09L67.35,164.69L68.51,150.54L69.09,153.86L69.67,148.68L70.25,162.53L71.41,158.27L71.99,167.09L73.15,146.51L73.73,149.61L74.31,148.76L74.89,149.3L75.48,149.07L76.06,146.82L76.64,144.27L77.22,144.81L77.8,146.44L78.38,147.13L78.96,151.31L79.54,155.1L80.12,164.3L80.7,164.38L81.28,201.66L83.02,154.09L83.6,148.29L84.76,142.73L85.35,142.11L86.51,142.03L87.09,143.19L87.67,143.81L88.25,145.74L91.15,127.49L91.73,147.75L92.31,155.72L92.89,152.16L94.63,127.57L95.22,120.91L95.8,120.14L96.38,123.31L96.96,137.78L97.54,132.82L98.7,118.05L99.28,121.53L100.44,112.64L101.02,117.36L101.6,115.65L102.18,127.88L102.76,149.14L103.34,133.21L104.5,118.75L105.09,115.58L106.25,112.79L106.83,113.57L107.99,108.62L108.57,109.08L109.15,108.77L109.73,110.63L110.31,109.78L110.89,110.4L112.05,114.88L112.63,122.54L113.21,137.54L113.79,125.55L115.54,108.38L116.12,113.1L117.28,106.45L117.86,106.06L119.02,108.07L119.6,105.91L120.76,104.29L121.34,103.67L121.92,107.92L122.5,105.83L123.08,119.91L123.66,115.89L124.24,103.36L124.82,105.37L125.41,104.44L126.57,103.05L127.15,102.97L127.73,104.36L128.31,101.96L129.47,95.08L130.05,97.94L131.79,92.14L132.37,92.84L134.11,102.97L134.69,98.17L135.28,97.56L135.86,93.07L136.44,93.46L137.02,96.86L137.6,93.84L138.18,94.08L138.76,92.06L140.5,87.19L141.08,92.68L142.24,87.5L142.82,86.42L143.98,104.36L144.56,93.61L145.15,98.1L145.73,90.13L146.89,86.57L147.47,92.53L149.21,93.77L149.79,99.18L150.37,101.89L150.95,96.16L152.11,84.41L152.69,84.87L153.27,88.43L153.85,85.57L154.43,83.87L155.02,86.88L155.6,87.58L156.18,97.25L157.34,119.83L157.92,92.84L159.66,82.47L160.24,82.55L161.4,85.57L161.98,83.56L162.56,82.01L163.14,84.33L163.72,90.29L164.3,87.81L165.47,82.94L166.05,80.31L168.95,51.69L169.53,64.14L170.11,84.95L170.69,71.41L171.27,56.1L171.85,69.48L172.43,74.51L173.01,58.19L174.17,47.13L174.75,60.66L175.34,106.14L175.92,92.22L177.66,67.86L178.24,70.64L178.82,68.78L179.4,59.19L179.98,55.17L180.56,56.95L181.72,51.54L182.3,50.53L183.46,45.35L184.04,42.33L184.62,44.42L185.21,51.23L186.37,168.71L186.95,134.84L187.53,104.75L188.11,134.84L189.27,89.9L189.85,78.68L190.43,79.07L191.01,63.6L191.59,61.9L192.17,62.36L192.75,54.94L193.91,54.86L194.49,76.29L195.08,78.61L195.66,67.31L196.24,66.31L196.82,54.79L197.4,55.25L197.98,50.07L199.14,48.13L199.72,47.36L200.3,45.43L200.88,63.45L201.46,91.06L202.04,81.93L203.78,50.38L204.36,48.98L204.94,59.35L205.53,57.26L206.11,55.56L207.27,59.74L207.85,56.41L208.43,55.4L209.01,57.41L209.59,48.37L210.17,49.6L210.75,49.53L211.91,46.05L212.49,44.27L213.65,48.52L214.23,66.85L214.81,83.48L215.4,59.5L215.98,64.14L216.56,53.78L217.14,52.39L217.72,48.6L218.88,45.66L219.46,46.97L220.04,44.58L220.62,46.43L221.2,46.59L221.78,48.52L222.36,44.42L222.94,46.05L223.52,41.71L224.1,42.1L224.68,41.4L225.27,69.79L225.85,50.69L226.43,47.21L227.01,51.46L227.59,56.8L228.17,102.58L228.75,123.93L229.33,86.88L230.49,58.42L231.07,56.64L233.39,43.8L233.97,45.58L234.55,44.27L235.14,45.58L235.72,44.65L236.3,40.55L237.46,41.95L238.04,40.32L238.62,48.83L239.2,46.43L239.78,47.05L241.52,57.49L242.1,46.59L242.68,41.17L243.26,42.33L243.84,40.63L244.42,39.16L245.01,45.58L246.17,40.79L246.75,46.05L247.33,43.03L247.91,44.81L248.49,41.02L249.07,42.8L249.65,43.65L250.23,36.53L250.81,38.62L251.39,33.9L251.97,37.69L252.55,35.99L253.13,43.11L253.71,66.93L254.29,75.9L254.87,59.19L255.46,55.09L256.04,43.18L256.62,45.97L257.2,44.19L257.78,44.58L258.36,40.94L258.94,42.26L259.52,37.23L260.68,38.77L261.26,41.48L261.84,40.17L262.42,36.07L263,36.76L263.58,44.81L264.16,45.89L264.74,40.79L265.91,39.01L266.49,43.26L267.65,36.53L268.23,40.24L268.81,44.11L269.39,40.79L269.97,41.79L270.55,69.17L271.13,39.39L271.71,42.18L272.29,39.08L272.87,41.79L273.45,36.07L274.03,34.91L274.61,35.6L275.2,34.06L275.78,36.76L276.36,36.15L276.94,34.44L278.68,33.36L279.26,35.37L279.84,44.5L280.42,41.48L281,35.22L281.58,36.61L282.16,35.06L282.74,34.83L283.32,33.59L283.9,31.81L284.48,32.51L285.07,40.32L285.65,76.13L287.39,36.3L287.97,37.46L288.55,38L289.13,36.53L290.29,34.6L290.87,31.74L291.45,34.13L292.03,33.75L292.61,33.05L294.93,32.97L295.52,31.43L296.1,32.05L296.68,39.47L297.26,66.77L297.84,53.08L299,36.3L299.58,78.61L300.16,70.8L300.74,45.74L301.32,43.42L301.9,37L302.48,35.99L303.06,32.43L303.64,32.59L304.22,35.84L305.97,32.2L306.55,31.58L307.13,34.06L307.71,31.2L308.29,34.99L308.87,32.59L310.03,28.8L310.61,30.73L311.19,31.5L311.77,30.73L312.93,30.34L313.51,32.2L315.84,29.88L316.42,31.58L317.58,39.32L318.16,41.17L319.32,31.66L319.9,34.13L320.48,28.95L321.06,31.66L321.64,26.94L322.22,30.81L322.8,28.26L323.38,30.96L323.96,32.12L324.54,46.66L325.71,81.93L326.29,42.1L326.87,37.61L327.45,38.7L328.03,35.68L328.61,33.67L329.19,35.14L329.77,36.92L330.35,30.89L330.93,29.65L331.51,31.66L332.09,30.96L332.67,28.57L333.25,30.73L333.83,28.57L334.41,29.03L334.99,27.41L336.74,31.04L337.32,30.42L338.48,29.18L339.06,38.54L339.64,43.57L340.22,38L340.8,31.43L341.38,32.36L341.96,35.29L342.54,35.29L343.12,32.2L346.03,27.48L346.61,31.12L348.35,27.25L348.93,29.65L349.51,25.32L350.09,27.17L350.67,24.93L351.25,27.87L351.83,28.57L352.41,27.48L352.99,27.87L353.57,31.04L354.15,32.12L354.73,28.88L355.9,30.34L356.48,33.98L357.06,32.2L357.64,33.21L358.22,30.65L358.8,31.43L359.38,31.12L359.96,27.48L360.54,28.57L361.12,27.25L362.28,37.54L362.86,32.2L363.44,35.37L364.02,27.79L364.6,29.18L365.19,28.8L365.77,67.47L366.93,32.2L367.51,29.57L368.09,26.32L368.67,27.1L369.25,28.02L370.99,25.63L371.57,26.86L372.15,26.25L372.73,24.47L373.31,26.86L373.89,23.46L374.47,23.77L375.06,25.32L375.64,29.8L376.22,47.98L376.8,38.93L377.38,40.48L377.96,49.45L379.12,31.2L379.7,30.19L380.86,27.48L381.44,26.09L383.76,24.93L384.34,32.59L384.92,53.47L385.51,37.61L386.09,37.23L386.67,34.52L387.25,33.59L387.83,27.33L388.99,25.94L389.57,26.48L390.15,25.39L390.73,26.55L391.31,23.85L391.89,24.31L392.47,23.46L393.05,25.7L393.63,24.93L394.21,24.93L394.79,23.69L395.96,21.68L396.54,24.93L397.7,36.3L398.28,36.53L399.44,46.35L400.02,37.54L401.18,29.34L401.76,34.52L403.5,28.88L404.08,25.55L404.66,24.7L405.25,22.38L405.83,21.99L406.41,25.7L406.99,23.77L407.57,26.01L408.15,22.07L408.73,26.4L409.89,67.86L410.47,33.05L411.63,32.05L412.21,33.52L412.79,31.66L413.37,24.85L413.95,28.95L414.53,28.8L415.12,28.41L415.7,24.23L416.28,26.25L416.86,29.18L417.44,41.64L418.02,39.7L418.6,42.1L420.92,24.7L421.5,25.63L422.08,25.63L422.66,29.96L423.24,24.7L423.82,25.86L424.4,24.62L424.98,22.46L425.57,24.47L426.15,25.55L426.73,25.01L427.31,32.59L427.89,30.34L428.47,27.64L430.79,21.14L431.37,23.07L431.95,22.38L432.53,23.46L433.11,25.39L433.69,23.62L434.27,23.31L434.85,21.37L436.6,37.15L437.18,36.53L438.34,27.56L438.92,24L439.5,25.24L440.08,24L441.24,23L441.82,27.56L443.56,52.7L444.14,38.54L444.72,27.25L445.31,31.04L447.05,23.31L447.63,26.79L448.21,26.79L448.79,23L449.37,21.6L449.95,23.46L450.53,21.3L451.11,24.85L451.69,20.83L452.27,21.68L452.85,21.37L454.01,20.75L454.59,21.91L455.76,18.36L456.34,20.68L456.92,23.07L457.5,42.49L458.08,53.55L458.66,47.28L459.82,27.48L460.4,29.96L460.98,26.48L461.56,31.58L462.72,22.53L463.3,23.77L463.88,22.3L464.46,24.39L465.05,30.04L466.21,21.45L466.79,25.16L467.37,25.94L467.95,24.47L470.27,18.59L470.85,19.98L471.43,21.3L472.01,19.21L472.59,21.45L473.17,20.91L473.75,22.61L474.33,28.18L474.91,51.46L476.08,30.11L476.66,42.33L477.24,35.37L477.82,40.09L478.98,21.91L479.56,20.99L480.14,23.23L480.72,21.91L481.88,21.3L482.46,20.83L483.04,19.83L483.62,25.86L484.78,19.75L485.37,21.06L485.95,22.22L486.53,18.28L487.11,18.67L487.69,21.99L488.85,18.98L489.43,19.9L490.59,25.09L491.17,23.85L491.75,29.42L492.33,26.32L492.91,29.96L493.49,40.94L494.07,60.59L494.65,40.63L495.24,36.92L495.82,24.39L496.98,23.93L497.56,20.29L498.14,21.53L498.72,19.13L499.3,20.06L499.88,17.66L501.04,20.91L501.62,19.75L502.2,22.53L502.78,21.3L503.36,23L503.94,18.59L505.11,19.13L505.69,18.43L506.85,17.43L507.43,20.75L508.01,21.91L508.59,19.44L509.75,24.78L510.33,19.05L510.91,22.15L511.49,66L512.65,24.39L513.23,22.46L514.97,18.82L515.56,19.44L516.72,19.28L517.3,17.2L517.88,18.05L518.46,17.51L519.04,16.5L519.62,17.12L520.2,18.67L520.78,26.86L521.36,51.77L521.94,44.03L523.1,31.43L523.68,28.64L524.26,31.27L524.84,40.24L526.01,26.55L526.59,26.63L527.17,25.55L530.65,19.98L531.23,21.06L531.81,19.59L532.39,20.37L532.97,21.84L533.55,18.9L534.13,17.35L534.71,18.36L535.88,20.83L536.46,19.52L537.04,17.12L537.62,19.36L538.2,24.85L538.78,22.3L539.36,18.67L539.94,22.76L540.52,54.79L541.1,33.52L542.26,24.47L542.84,23.54L543.42,26.94L544,22.07L544.58,23.69L545.17,21.06L545.75,22.61L546.33,20.99L546.91,20.83L547.49,23.62L549.23,17.97L549.81,18.98L550.39,17.89L550.97,21.14L551.55,18.67L552.13,22.3L552.71,25.09L553.29,19.98L553.87,16.81L554.45,18.59L555.04,20.75L555.62,18.74L556.2,19.21L556.78,18.67L557.36,18.05L557.94,19.83L559.1,17.66L559.68,20.21L560.26,21.3L560.84,18.2L562,23.15L562.58,23.07L563.16,19.28L563.74,24.23L564.32,36.69L564.9,28.33L566.07,19.44L566.65,21.14L567.23,26.48L567.81,19.75L568.39,19.75L568.97,18.98L569.55,19.67L570.13,19.13L570.71,18.51L571.29,16.73L571.87,19.83L572.45,19.13L573.03,17.58L573.61,16.58L574.19,16.96L574.77,17.2L576.52,24.78L577.1,30.42L578.84,19.67L579.42,19.05L580,19.9" style="vector-effect: non-scaling-stroke; fill: none; stroke: rgb(31, 119, 180); stroke-opacity: 1; stroke-width: 2px; opacity: 1;"/><g class="points"/></g><g class="trace scatter tracef17a56" style="stroke-miterlimit: 2; opacity: 1;"><path class="js-line" d="M0,313.5L0,278.14L0.58,291.4L1.16,279.5L1.74,271.69L2.32,281.2L2.9,278.48L3.48,280.86L4.06,281.2L4.64,271.69L5.23,273.05L5.81,267.61L6.39,269.31L6.97,251.63L7.55,279.16L8.13,277.8L8.71,251.63L9.29,259.45L9.87,247.55L11.03,281.54L11.61,267.27L12.19,288.68L12.77,262.85L13.35,252.65L13.93,265.57L14.51,269.65L15.1,253.33L16.26,254.69L16.84,253.67L17.42,271.01L18,252.31L19.16,255.03L19.74,271.01L20.9,252.65L21.48,256.39L22.06,270.33L22.64,263.53L23.8,253.33L24.38,254.01L24.96,252.99L25.55,254.01L26.71,249.25L27.29,251.29L27.87,252.65L28.45,249.93L29.61,240.07L30.19,249.59L31.35,246.87L31.93,226.81L32.51,246.87L33.09,234.97L33.67,241.43L34.25,241.09L34.83,227.15L35.42,234.63L36,213.89L38.32,261.83L38.9,225.79L39.48,233.95L40.06,216.61L40.64,214.57L41.22,225.79L42.38,215.25L42.96,233.27L44.7,198.26L45.29,213.21L45.87,202.33L46.45,234.63L47.61,242.11L48.19,227.15L49.35,220.01L49.93,218.65L50.51,216.61L51.09,207.43L51.67,201.65L52.25,213.21L52.83,218.65L53.41,201.65L53.99,211.51L54.57,208.11L55.16,221.03L55.74,204.37L56.32,204.71L56.9,220.35L57.48,210.49L58.06,215.25L58.64,199.96L59.22,204.03L59.8,215.25L60.96,195.88L61.54,199.96L63.28,247.55L63.86,240.41L64.44,213.89L65.03,241.09L65.61,224.77L66.19,251.97L66.77,205.73L67.35,213.89L67.93,200.64L68.51,196.9L69.09,201.99L69.67,211.17L70.25,197.58L70.83,207.43L71.41,236.33L72.57,208.45L73.15,207.77L73.73,211.85L74.31,201.65L74.89,222.39L75.48,197.24L76.06,195.2L76.64,197.24L77.8,205.39L78.38,191.12L78.96,203.01L79.54,196.22L80.7,237.69L81.28,216.61L82.44,202.67L83.02,209.13L84.18,189.42L84.76,191.12L85.35,187.04L85.93,197.58L86.51,194.18L88.25,172.76L88.83,189.08L89.99,164.94L90.57,176.5L91.15,166.3L91.73,196.56L92.31,180.92L92.89,210.83L94.63,164.94L95.22,164.6L95.8,162.9L96.38,190.78L96.96,197.24L97.54,173.44L98.12,161.88L98.7,162.56L99.28,166.98L99.86,158.14L100.44,163.58L101.02,161.54L101.6,162.22L102.18,208.45L102.76,169.02L103.34,177.52L103.92,156.44L104.5,154.74L105.09,161.88L105.67,164.26L106.25,151L106.83,159.16L107.41,158.14L107.99,150.66L108.57,144.54L109.15,157.46L109.73,173.78L110.31,145.22L110.89,154.4L111.47,192.14L112.05,162.56L112.63,171.06L113.21,163.24L114.37,163.92L114.95,161.2L115.54,147.26L116.12,160.86L116.7,166.3L117.28,160.86L117.86,147.26L118.44,148.28L119.02,142.16L119.6,162.22L120.18,155.42L120.76,161.54L121.34,159.16L121.92,153.04L122.5,159.5L123.08,165.96L123.66,145.9L124.24,149.3L124.82,144.2L125.41,135.02L125.99,160.52L126.57,162.9L127.15,144.54L127.73,161.2L128.31,139.44L128.89,131.62L129.47,140.8L130.05,141.82L130.63,149.64L131.21,129.92L131.79,130.26L132.37,134L132.95,130.26L133.53,156.1L134.69,121.43L135.28,136.72L136.44,128.56L137.02,145.9L137.6,141.14L138.18,121.09L139.34,130.26L139.92,122.45L140.5,127.54L141.08,112.93L141.66,109.19L142.24,126.52L142.82,133.32L143.4,129.58L143.98,129.92L144.56,126.52L145.15,122.79L145.73,102.39L146.31,119.73L146.89,106.13L148.63,144.2L149.21,133.32L150.37,117.69L150.95,116.33L151.53,102.73L152.11,113.27L152.69,109.53L153.27,125.84L154.43,96.95L155.02,132.64L155.6,108.51L156.18,135.36L156.76,152.36L157.34,127.2L158.5,116.67L159.08,119.73L160.24,123.47L160.82,112.93L161.98,130.94L162.56,118.03L163.14,111.57L163.72,117.35L164.3,117.69L164.88,126.18L165.47,116.67L166.05,119.73L167.79,84.03L168.37,102.05L169.53,113.27L170.11,137.4L170.69,99.67L171.27,110.55L171.85,121.09L173.01,90.83L173.59,111.23L174.17,99.33L174.75,149.98L175.92,97.29L176.5,108.85L177.66,96.95L178.24,113.61L179.4,91.51L179.98,79.61L181.14,83.35L181.72,82.67L182.3,86.75L182.88,72.47L184.04,80.63L184.62,79.95L185.79,195.54L186.37,153.04L186.95,123.47L187.53,198.6L188.69,127.2L189.27,112.25L189.85,128.9L190.43,124.83L191.01,115.99L192.17,93.21L192.75,98.99L193.33,101.03L193.91,118.03L195.08,104.09L195.66,98.99L197.4,86.41L197.98,105.45L198.56,90.49L199.14,96.27L199.72,87.43L200.3,92.19L200.88,103.41L201.46,98.99L202.04,96.61L202.62,87.09L203.2,97.97L203.78,90.83L204.36,78.25L204.94,104.77L205.53,81.65L206.11,89.47L206.69,108.17L207.27,91.85L207.85,113.61L208.43,106.81L209.01,87.43L209.59,90.15L210.17,99.33L210.75,103.41L211.33,87.43L211.91,86.41L212.49,98.99L213.07,93.89L213.65,97.63L214.23,115.99L214.81,94.91L215.4,94.23L215.98,102.73L216.56,99.33L217.14,84.71L217.72,91.85L218.3,72.13L219.46,106.13L220.04,85.39L220.62,93.21L221.2,84.71L221.78,87.09L222.36,86.41L222.94,77.91L223.52,82.67L224.1,79.61L224.68,73.49L225.27,101.71L226.43,62.27L227.01,93.55L228.17,130.26L228.75,131.96L229.33,103.07L229.91,114.97L231.65,96.61L232.23,84.03L233.39,98.99L233.97,80.63L234.55,86.41L235.14,76.55L236.3,86.41L236.88,91.85L237.46,108.17L238.04,79.95L238.62,94.91L239.2,82.33L239.78,69.07L240.36,101.03L240.94,95.25L241.52,97.29L242.1,85.73L242.68,106.47L243.26,96.61L243.84,97.63L244.42,106.81L245.01,75.19L245.59,94.23L246.17,85.39L246.75,95.59L247.33,96.95L247.91,83.35L248.49,74.17L249.07,86.41L250.23,70.77L250.81,79.95L251.39,80.97L251.97,72.47L253.71,113.95L254.29,86.07L254.87,113.61L255.46,107.15L256.04,89.47L256.62,91.51L257.2,76.21L257.78,75.53L258.36,72.13L258.94,70.09L259.52,76.55L260.1,72.47L260.68,79.27L261.26,92.87L261.84,87.09L262.42,73.49L263,88.79L263.58,110.89L264.16,95.59L264.74,75.19L265.33,81.31L265.91,84.71L266.49,100.35L267.07,73.83L267.65,90.49L268.23,68.73L268.81,74.85L269.39,71.79L269.97,77.23L270.55,70.09L271.13,56.15L271.71,60.91L272.29,60.57L272.87,49.7L274.03,54.45L274.61,51.73L275.2,51.39L275.78,58.87L276.94,49.02L277.52,51.39L278.1,51.39L278.68,49.36L279.26,75.53L279.84,48.68L281,59.89L281.58,56.49L282.16,59.55L282.74,53.09L283.32,54.11L283.9,57.85L284.48,60.57L285.07,57.51L285.65,77.91L286.23,56.49L286.81,61.25L287.39,60.23L287.97,60.23L289.13,56.83L289.71,56.49L290.29,55.81L290.87,53.09L291.45,51.73L292.03,54.45L292.61,50.71L293.19,59.89L293.77,53.43L294.35,54.79L294.93,58.19L295.52,57.17L296.1,62.27L297.26,75.19L297.84,72.81L298.42,66.01L299,83.35L299.58,111.23L300.16,69.41L300.74,65.67L301.32,66.69L301.9,66.69L303.06,56.83L303.64,67.71L304.8,71.11L305.39,69.75L305.97,80.63L306.55,69.07L307.71,67.71L308.29,63.63L308.87,65.33L309.45,70.09L310.61,62.27L311.19,62.27L311.77,61.25L312.35,70.09L312.93,69.75L313.51,71.45L314.09,79.27L314.67,63.29L315.26,84.03L315.84,54.11L316.42,80.63L317,57.17L317.58,57.51L318.16,84.71L319.9,59.21L320.48,66.69L321.06,71.45L321.64,70.09L322.22,69.75L322.8,84.03L323.38,79.27L323.96,55.81L324.54,105.45L325.13,110.89L325.71,69.07L326.87,78.25L327.45,72.13L328.03,75.87L328.61,66.35L329.77,76.21L330.35,74.17L330.93,79.27L331.51,75.53L332.09,62.61L332.67,69.75L333.25,86.41L333.83,72.47L334.99,58.19L335.58,80.29L337.32,67.37L337.9,63.29L339.06,67.71L339.64,66.35L340.22,77.91L340.8,65.67L341.96,71.11L342.54,72.13L343.12,68.05L343.7,71.45L344.28,76.89L344.86,69.75L345.45,55.47L346.03,74.17L346.61,77.57L347.19,67.37L347.77,64.31L348.35,71.45L348.93,58.53L349.51,78.59L350.09,52.41L350.67,77.91L351.25,74.85L351.83,67.37L352.41,66.01L352.99,97.29L353.57,88.11L354.15,60.91L354.73,80.97L355.32,77.91L355.9,71.11L356.48,56.49L357.06,63.97L358.22,60.23L358.8,71.11L359.96,68.39L360.54,70.09L361.12,64.99L361.7,73.49L362.28,66.69L362.86,48.34L363.44,54.79L364.02,51.39L364.6,57.17L365.19,73.83L365.77,74.17L366.35,67.03L366.93,68.39L367.51,67.03L368.09,62.61L368.67,73.83L369.25,74.17L369.83,67.37L370.41,53.43L370.99,64.99L371.57,72.13L372.15,67.71L372.73,63.63L373.31,54.11L374.47,62.61L375.06,51.39L376.22,78.93L376.8,59.89L377.38,81.65L377.96,65.67L378.54,54.79L379.12,61.93L379.7,63.29L380.28,62.61L380.86,68.05L381.44,58.87L382.02,63.63L382.6,55.47L383.18,60.23L383.76,72.13L384.34,62.61L384.92,68.05L385.51,59.21L386.09,64.99L386.67,57.51L387.25,58.87L387.83,57.51L388.41,53.77L388.99,65.33L390.15,57.51L390.73,58.53L392.47,53.09L393.05,55.81L393.63,71.45L394.21,56.49L394.79,56.15L395.38,65.33L395.96,58.19L396.54,102.73L398.28,80.29L398.86,81.99L399.44,52.41L400.02,62.61L400.6,57.17L401.18,84.37L401.76,81.65L402.34,61.25L402.92,69.75L403.5,66.69L404.08,53.43L404.66,74.85L405.25,57.17L405.83,59.55L406.41,59.55L406.99,81.31L407.57,75.87L408.15,56.83L409.31,113.27L409.89,100.69L410.47,79.61L411.05,81.31L411.63,78.93L412.21,91.17L412.79,80.29L413.37,70.77L413.95,80.29L414.53,83.35L415.12,77.91L415.7,85.05L416.28,83.01L416.86,70.43L417.44,55.81L418.02,58.53L418.6,53.09L419.18,50.71L419.76,66.69L420.34,57.17L420.92,57.85L421.5,52.75L422.66,64.65L423.24,50.38L423.82,54.11L424.4,47.66L425.57,53.43L426.15,62.27L426.73,56.49L427.31,79.95L427.89,70.09L428.47,75.53L429.63,55.13L430.21,61.93L431.37,76.55L431.95,63.63L432.53,55.81L433.11,69.07L433.69,69.75L434.27,75.19L435.44,71.45L436.02,71.11L436.6,87.09L437.18,78.93L438.34,67.71L438.92,63.97L439.5,68.39L440.08,49.02L441.82,78.59L442.4,55.81L442.98,98.31L443.56,51.39L444.14,42.9L444.72,60.23L445.31,48.68L445.89,59.89L447.05,45.62L447.63,49.02L448.21,41.2L448.79,44.26L449.95,48.68L450.53,44.94L451.11,41.88L451.69,49.02L453.43,50.38L454.01,65.67L454.59,48.68L455.18,50.04L455.76,49.02L456.34,52.07L456.92,50.04L458.08,67.03L458.66,46.3L459.82,78.59L460.4,58.87L460.98,52.07L461.56,61.59L462.72,53.09L463.3,50.71L463.88,57.85L464.46,57.17L465.05,55.13L465.63,73.15L466.21,62.61L467.37,49.7L467.95,48L469.11,48.68L469.69,54.79L470.85,56.83L471.43,51.73L472.01,46.64L472.59,53.43L473.17,42.9L473.75,48L474.33,74.17L474.91,67.71L475.5,73.15L476.08,98.31L476.66,75.19L477.24,66.01L477.82,75.19L478.4,74.17L478.98,68.73L479.56,70.43L480.14,67.71L480.72,65.33L481.3,55.81L481.88,74.85L482.46,55.81L483.04,81.65L483.62,76.89L484.2,62.95L484.78,54.45L485.37,59.89L486.53,45.96L487.11,71.11L487.69,49.7L488.27,60.57L489.43,45.96L490.01,48L490.59,51.05L491.17,59.21L491.75,75.87L492.33,64.31L493.49,73.49L494.07,55.47L496.4,42.22L496.98,45.96L498.14,47.32L498.72,46.98L499.88,53.09L500.46,46.64L501.62,57.17L502.2,59.21L503.36,53.09L503.94,55.47L504.52,53.43L505.11,57.17L505.69,45.28L506.27,60.23L506.85,52.07L507.43,61.59L508.01,55.47L508.59,57.51L509.17,63.97L509.75,54.11L510.33,51.05L510.91,64.31L511.49,81.31L512.07,55.81L512.65,52.07L513.23,55.47L513.81,55.81L514.39,53.77L514.97,55.13L515.56,52.07L516.72,58.87L517.3,60.91L517.88,60.57L518.46,53.43L519.62,60.57L520.2,58.53L520.78,98.31L521.36,62.27L521.94,51.05L522.52,54.45L523.68,42.9L524.26,51.73L524.84,63.97L525.43,63.29L526.01,61.25L526.59,56.83L527.17,58.19L527.75,50.71L528.33,59.89L529.49,46.64L530.07,47.66L530.65,56.15L531.23,46.98L531.81,56.15L532.39,46.3L532.97,59.89L533.55,56.83L534.13,54.79L534.71,62.95L535.3,57.51L535.88,69.07L536.46,54.45L537.62,56.49L538.2,52.75L538.78,46.3L539.36,67.71L539.94,59.89L540.52,76.89L541.1,61.93L541.68,62.61L542.26,62.61L542.84,51.39L543.42,53.77L544,48L544.58,50.71L545.17,50.38L545.75,52.07L546.91,46.3L547.49,52.07L548.65,58.19L549.23,57.17L550.39,59.55L550.97,70.43L551.55,51.73L552.13,56.15L552.71,55.13L553.87,46.64L554.45,49.02L555.62,55.13L556.2,62.95L557.36,63.63L557.94,49.02L558.52,54.45L559.1,42.56L559.68,43.24L560.26,49.7L560.84,58.53L561.42,43.58L563.16,67.03L563.74,57.51L564.32,57.17L564.9,52.07L565.49,41.88L566.07,59.55L566.65,45.62L567.23,57.85L568.39,41.54L568.97,44.6L569.55,40.86L570.13,42.56L571.87,60.91L572.45,54.11L573.61,51.39L574.19,45.62L575.36,44.94L575.94,36.44L577.1,75.53L577.68,55.13L578.26,56.83L578.84,43.58L579.42,46.64L580,57.85" style="vector-effect: non-scaling-stroke; fill: none; stroke: rgb(255, 127, 14); stroke-opacity: 1; stroke-width: 2px; opacity: 1;"/><g class="points"/></g></g></g><g class="overplot"/><path class="xlines-above crisp" d="M0,0" style="fill: none;"/><path class="ylines-above crisp" d="M0,0" style="fill: none;"/><g class="overlines-above"/><g class="xaxislayer-above"><g class="xtick"><text text-anchor="middle" x="0" y="403" transform="translate(60,0)" style="font-family: 'Open Sans', verdana, arial, sans-serif; font-size: 12px; fill: rgb(68, 68, 68); fill-opacity: 1; white-space: pre;">0</text></g><g class="xtick"><text text-anchor="middle" x="0" y="403" transform="translate(176.12,0)" style="font-family: 'Open Sans', verdana, arial, sans-serif; font-size: 12px; fill: rgb(68, 68, 68); fill-opacity: 1; white-space: pre;">200</text></g><g class="xtick"><text text-anchor="middle" x="0" y="403" transform="translate(292.23,0)" style="font-family: 'Open Sans', verdana, arial, sans-serif; font-size: 12px; fill: rgb(68, 68, 68); fill-opacity: 1; white-space: pre;">400</text></g><g class="xtick"><text text-anchor="middle" x="0" y="403" transform="translate(408.35,0)" style="font-family: 'Open Sans', verdana, arial, sans-serif; font-size: 12px; fill: rgb(68, 68, 68); fill-opacity: 1; white-space: pre;">600</text></g><g class="xtick"><text text-anchor="middle" x="0" y="403" transform="translate(524.46,0)" style="font-family: 'Open Sans', verdana, arial, sans-serif; font-size: 12px; fill: rgb(68, 68, 68); fill-opacity: 1; white-space: pre;">800</text></g></g><g class="yaxislayer-above"><g class="ytick"><text text-anchor="end" x="59" y="4.199999999999999" transform="translate(0,373.5)" style="font-family: 'Open Sans', verdana, arial, sans-serif; font-size: 12px; fill: rgb(68, 68, 68); fill-opacity: 1; white-space: pre;">0</text></g><g class="ytick"><text text-anchor="end" x="59" y="4.199999999999999" transform="translate(0,311.76)" style="font-family: 'Open Sans', verdana, arial, sans-serif; font-size: 12px; fill: rgb(68, 68, 68); fill-opacity: 1; white-space: pre;">0.2</text></g><g class="ytick"><text text-anchor="end" x="59" y="4.199999999999999" transform="translate(0,250.03)" style="font-family: 'Open Sans', verdana, arial, sans-serif; font-size: 12px; fill: rgb(68, 68, 68); fill-opacity: 1; white-space: pre;">0.4</text></g><g class="ytick"><text text-anchor="end" x="59" y="4.199999999999999" transform="translate(0,188.29)" style="font-family: 'Open Sans', verdana, arial, sans-serif; font-size: 12px; fill: rgb(68, 68, 68); fill-opacity: 1; white-space: pre;">0.6</text></g><g class="ytick"><text text-anchor="end" x="59" y="4.199999999999999" transform="translate(0,126.56)" style="font-family: 'Open Sans', verdana, arial, sans-serif; font-size: 12px; fill: rgb(68, 68, 68); fill-opacity: 1; white-space: pre;">0.8</text></g><g class="ytick"><text text-anchor="end" x="59" y="4.199999999999999" transform="translate(0,64.82)" style="font-family: 'Open Sans', verdana, arial, sans-serif; font-size: 12px; fill: rgb(68, 68, 68); fill-opacity: 1; white-space: pre;">1</text></g></g><g class="overaxes-above"/></g></g><g class="polarlayer"/><g class="ternarylayer"/><g class="geolayer"/><g class="pielayer"/><g class="glimages"/><defs id="topdefs-511362"><g class="clips"/></defs><g class="layer-above"><g class="imagelayer"/><g class="shapelayer"/></g><g class="infolayer"><g class="g-gtitle"/><g class="g-xtitle"/><g class="g-ytitle"/></g></svg>