<svg class="main-svg" xmlns="http://www.w3.org/2000/svg" xmlns:xlink="http://www.w3.org/1999/xlink" width="700" height="450" style="" viewBox="0 0 700 450"><rect x="0" y="0" width="700" height="450" style="fill: rgb(255, 255, 255); fill-opacity: 1;"/><defs id="defs-08e2e9"><g class="clips"><clipPath id="clip08e2e9xyplot" class="plotclip"><rect width="580" height="330"/></clipPath><clipPath class="axesclip" id="clip08e2e9x"><rect x="60" y="0" width="580" height="450"/></clipPath><clipPath class="axesclip" id="clip08e2e9y"><rect x="0" y="60" width="700" height="330"/></clipPath><clipPath class="axesclip" id="clip08e2e9xy"><rect x="60" y="60" width="580" height="330"/></clipPath></g><g class="gradients"/></defs><g class="bglayer"><rect class="bg" x="60" y="60" width="580" height="330" style="fill: rgb(255, 255, 255); fill-opacity: 1; stroke-width: 0;"/></g><g class="layer-below"><g class="imagelayer"/><g class="shapelayer"/></g><g class="cartesianlayer"><g class="subplot xy"><g class="layer-subplot"><g class="shapelayer"/><g class="imagelayer"/></g><g class="gridlayer"><g class="x"><path class="xgrid crisp" d="M0,60v330" transform="translate(176.12,0)" style="stroke: rgb(238, 238, 238); stroke-opacity: 1; stroke-width: 1px;"/><path class="xgrid crisp" d="M0,60v330" transform="translate(292.23,0)" style="stroke: rgb(238, 238, 238); stroke-opacity: 1; stroke-width: 1px;"/><path class="xgrid crisp" d="M0,60v330" transform="translate(408.35,0)" style="stroke: rgb(238, 238, 238); stroke-opacity: 1; stroke-width: 1px;"/><path class="xgrid crisp" d="M0,60v330" transform="translate(524.46,0)" style="stroke: rgb(238, 238, 238); stroke-opacity: 1; stroke-width: 1px;"/></g><g class="y"><path class="ygrid crisp" d="M60,0h580" transform="translate(0,309.86)" style="stroke: rgb(238, 238, 238); stroke-opacity: 1; stroke-width: 1px;"/><path class="ygrid crisp" d="M60,0h580" transform="translate(0,246.23)" style="stroke: rgb(238, 238, 238); stroke-opacity: 1; stroke-width: 1px;"/><path class="ygrid crisp" d="M60,0h580" transform="translate(0,182.59)" style="stroke: rgb(238, 238, 238); stroke-opacity: 1; stroke-width: 1px;"/><path class="ygrid crisp" d="M60,0h580" transform="translate(0,118.95)" style="stroke: rgb(238, 238, 238); stroke-opacity: 1; stroke-width: 1px;"/></g></g><g class="zerolinelayer"><path class="xzl zl crisp" d="M0,60v330" transform="translate(60,0)" style="stroke: rgb(68, 68, 68); stroke-opacity: 1; stroke-width: 1px;"/><path class="yzl zl crisp" d="M60,0h580" transform="translate(0,373.5)" style="stroke: rgb(68, 68, 68); stroke-opacity: 1; stroke-width: 1px;"/></g><path class="xlines-below"/><path class="ylines-below"/><g class="overlines-below"/><g class="xaxislayer-below"/><g class="yaxislayer-below"/><g class="overaxes-below"/><g class="plot" transform="translate(60, 60)" clip-path="url(#clip08e2e9xyplot)"><g class="scatterlayer mlayer"><g class="trace scatter trace9ec67e" style="stroke-miterlimit: 2; opacity: 1;"><path class="js-line" d="M0,313.5L0,51.57L0.58,80.77L1.16,82.34L2.9,88.17L3.48,90.65L4.06,94.34L4.64,93.09L5.23,93.01L5.81,95.37L6.39,101.32L6.97,99.12L7.55,99.73L8.13,102.72L8.71,103.35L9.29,108.15L10.45,113.86L11.03,92.08L11.61,91.43L12.19,95.66L12.77,93.5L13.35,99.71L13.93,103.16L14.51,100.35L15.1,98.03L15.68,102.22L16.84,115.43L17.42,109.29L18.58,100.42L19.16,115.8L19.74,109.02L20.32,114.01L21.48,122.76L22.06,123.05L23.22,103.26L23.8,123.76L24.96,129.28L25.55,129.47L27.29,134.33L27.87,132.23L29.03,136.01L29.61,133.29L30.19,130.78L30.77,139.17L31.93,138.83L32.51,143.01L34.25,147.85L34.83,148.12L36.58,141.68L37.16,143.66L37.74,145.67L38.32,143.37L38.9,135.92L39.48,150.34L40.64,155.98L41.22,154.76L41.8,155.66L42.38,161.06L43.54,164.71L44.12,163.7L44.7,165.74L45.29,163.59L45.87,162.82L46.45,166.19L47.61,144.91L48.19,151.39L49.93,168.38L50.51,168.45L52.83,174.24L53.41,167.58L55.16,179.18L55.74,181.96L57.48,171.25L58.06,181.23L58.64,182.31L59.22,181.78L59.8,185.53L60.38,184.56L60.96,187.02L62.7,168.58L63.28,149L63.86,116.49L64.44,149.34L65.61,169.97L66.19,172.29L66.77,167.28L67.35,175.06L67.93,177.39L68.51,183.37L69.67,185.94L70.25,179.42L71.99,173.61L72.57,188.51L73.73,191.47L74.31,192.43L76.06,191.63L76.64,194.34L77.22,195.03L77.8,192.79L78.38,194.25L78.96,191.54L79.54,187.94L80.12,176.4L80.7,167.08L81.28,132.79L82.44,172.71L83.02,186.7L84.76,196.59L85.35,197.67L85.93,197.53L86.51,198.19L87.09,198.53L87.67,200.52L88.25,197.65L88.83,200.18L89.41,201.22L89.99,205.91L91.15,208.76L91.73,194.58L92.89,180.53L93.47,187.67L95.8,211.57L96.38,206.08L96.96,194.68L97.54,201.16L99.28,210.68L99.86,213.06L101.02,216.44L101.6,216.55L102.76,182L103.34,198.67L104.5,214.33L105.09,217.08L106.25,220.21L106.83,219.33L107.99,225.4L108.57,224.62L109.15,224.99L109.73,223.57L110.31,222.5L110.89,223.03L112.05,220.62L112.63,213.31L113.21,195L113.79,208.25L114.37,208.56L114.95,220.37L115.54,225.11L116.12,222.23L117.86,228.5L118.44,227.6L119.6,227.83L120.18,230.54L121.34,231.6L121.92,229.38L122.5,226.96L123.08,198.47L124.24,222.75L124.82,229.24L125.41,231.52L125.99,229.57L127.15,231.87L127.73,230.01L129.47,239.06L130.05,237.2L132.37,241.48L132.95,236.03L134.11,229.82L134.69,234.85L135.86,242.84L136.44,239.96L137.02,238.6L137.6,240.17L139.34,246.63L139.92,243.33L140.5,246.08L141.08,243.38L142.24,247.25L142.82,247.88L143.98,236.03L144.56,241.04L145.15,238.25L145.73,245.9L146.31,248.06L146.89,247.45L147.47,241.01L148.05,242.13L148.63,239.83L149.21,243.89L149.79,236.44L150.37,236.53L150.95,243.47L152.11,251.3L152.69,248.98L153.85,251.33L154.43,253.05L155.02,251.5L155.6,252.51L156.76,234.9L157.34,214.84L158.5,248.1L159.08,247.29L160.24,254.82L160.82,253.97L161.4,251.58L161.98,256.21L162.56,257.74L163.14,255.79L163.72,253.4L164.3,256.86L165.47,259.73L166.05,259.33L166.63,259.81L167.21,261.69L167.79,264.15L168.37,263.5L168.95,259.76L169.53,254.9L170.11,231.4L171.27,262.75L171.85,252.99L172.43,253.75L173.01,260.84L174.17,267.64L174.75,256.77L175.34,208.89L175.92,238.21L176.5,246.19L177.08,241.29L178.24,255.64L178.82,257.16L180.56,264.8L181.14,265.59L182.3,267.07L182.88,270.4L184.62,272.94L185.21,262.11L185.79,121.63L186.37,124.45L186.95,187.88L187.53,206.15L188.11,192.43L189.27,227.03L189.85,237.7L191.59,251.01L192.17,252.74L193.33,260.57L193.91,259.55L194.49,240.37L195.08,240.48L195.66,248.04L196.24,247.04L196.82,259.35L197.4,259.47L197.98,263.76L199.72,269.52L200.3,268.37L201.46,231.07L202.04,236.35L203.78,264.23L204.36,264.55L205.53,258.68L206.11,260.56L206.69,254.45L207.27,257.23L207.85,260.83L208.43,260.73L209.01,259.07L209.59,267.94L210.17,262.74L211.33,271.91L211.91,271.32L212.49,271.61L213.07,271.56L213.65,266.85L214.81,234.75L215.4,253.31L215.98,250.96L216.56,262.12L218.3,269.65L218.88,269.12L219.46,267.51L220.04,270.6L220.62,271.57L221.2,269.18L221.78,267.98L222.36,273.38L222.94,271.05L223.52,273.96L224.1,274.82L224.68,262.01L225.27,243.77L225.85,268.59L226.43,270.86L227.01,266.85L227.59,258.97L228.17,215.68L228.75,188.12L229.33,235.98L230.49,257.24L231.07,260.89L233.39,273.63L233.97,272.6L234.55,272.13L235.14,272.95L237.46,276.47L238.04,276.36L239.2,270.2L239.78,269.99L240.36,268.15L240.94,262.4L241.52,261.99L242.1,272.3L242.68,272.4L243.26,275.01L243.84,276L244.42,278.64L245.01,272.96L245.59,273.94L246.17,276.17L247.33,272.55L247.91,271.68L249.07,275.05L249.65,273.58L251.39,281.92L251.97,279.8L252.55,281.7L253.13,272.46L254.29,239.89L254.87,259.8L256.04,273.9L256.62,272.46L257.2,275.43L257.78,274.12L258.36,278.37L258.94,276.36L259.52,279.29L260.1,279.11L260.68,277.72L261.84,276.68L262.42,282.08L264.16,271.29L264.74,274.61L265.91,278.37L266.49,274.67L267.65,279.74L268.23,276.72L268.81,268.6L269.39,276.65L269.97,270.94L270.55,248.45L271.13,276.08L271.71,274.47L272.29,276.99L272.87,275.02L273.45,280.26L275.2,282.56L275.78,279.8L277.52,283.18L278.1,283.72L279.26,281.76L279.84,258.89L281,280.71L281.58,281.01L283.32,282.43L283.9,284.27L284.48,284.79L285.07,269.58L285.65,233.26L286.23,259.4L287.39,278.89L287.97,279.61L288.55,278.21L289.13,281.95L289.71,282.08L290.29,283.23L290.87,285.25L291.45,282.87L292.61,282.95L293.19,283.23L293.77,284.49L294.35,284.03L294.93,284.52L295.52,286.54L296.1,283.73L296.68,277.74L297.26,236.22L298.42,279.86L299,274.22L299.58,229.14L300.16,237.79L300.74,270.09L301.32,273.2L301.9,280.75L302.48,280.4L303.06,284.59L304.22,283.11L304.8,284.77L305.39,284.42L305.97,286.07L306.55,285.9L307.13,283.18L307.71,286.23L308.29,284.42L310.03,288.84L310.61,286.43L312.93,289.26L313.51,286.01L314.09,285.68L314.67,286.33L315.26,285.12L315.84,288.11L316.42,287.17L317,276.66L317.58,280.06L318.16,276.26L319.32,286.81L319.9,284.48L320.48,287.05L321.06,285.96L321.64,290.87L322.22,287.07L322.8,288.19L323.38,285.75L323.96,286.57L324.54,259.53L325.13,210.6L325.71,217.03L326.29,273.21L327.45,281.05L328.03,281.82L328.61,284.32L329.19,282.5L329.77,281.5L330.35,284.81L330.93,287.29L331.51,285.5L332.67,288.74L333.25,286.67L334.41,289.08L334.99,289.99L335.58,290.05L336.16,285.39L336.74,287.35L337.32,285.87L338.48,288.6L339.06,278.44L339.64,273.75L340.22,278.54L340.8,287.08L341.38,285.93L341.96,282.03L342.54,282.4L343.12,284.86L343.7,285.16L344.28,287.63L346.03,290.52L346.61,285.46L347.19,287.2L347.77,285.83L350.09,292.3L350.67,291.31L351.83,288.74L352.41,290.84L352.99,291.03L353.57,287.11L354.15,284.16L354.73,288.21L355.32,285.5L355.9,288.85L356.48,282.23L357.06,285.31L357.64,282.36L358.22,286.38L358.8,285.15L359.38,286.87L359.96,288.81L360.54,287.62L361.12,290.21L361.7,279.27L362.28,278.67L362.86,285.59L363.44,282.13L364.02,290.05L365.19,288.75L365.77,244.08L366.93,283.52L367.51,288.38L368.67,290.31L369.25,289.18L369.83,291.38L370.41,290.85L370.99,291.84L372.15,290.72L372.73,293.55L373.31,290.86L373.89,293.23L374.47,292.08L375.06,293.16L375.64,287.88L376.22,264.15L376.8,277.88L377.38,272.07L377.96,265.65L378.54,284.53L379.12,284.95L379.7,284.03L381.44,293.5L382.02,292.21L382.6,293.1L383.18,292.36L383.76,291.44L384.34,284.22L384.92,255.71L385.51,274.56L386.67,282.67L387.25,282.92L388.41,291.06L388.99,290.94L389.57,291.15L390.15,292.6L390.73,291.29L391.31,293.8L391.89,291.77L392.47,293.9L394.79,292.87L395.38,294.76L395.96,295.42L396.54,291.53L397.7,278.63L398.28,279.65L398.86,278.49L399.44,270.6L401.18,287.54L401.76,280.34L404.08,292.05L404.66,292.64L405.83,294.65L406.41,292.88L406.99,291.53L407.57,291.99L408.15,294.22L408.73,290.8L409.31,261.12L409.89,245.72L410.47,282.33L411.63,284.44L412.21,285.01L413.37,291.2L413.95,290.12L414.53,290.61L415.12,289.52L415.7,292.21L416.28,290.59L417.44,273.32L418.02,276.9L418.6,276.72L419.18,278.52L420.92,292L421.5,292.05L422.66,289L423.24,292.02L423.82,292L424.4,292.81L424.98,294.19L425.57,293.74L426.15,291.63L426.73,291.68L427.31,282.9L429.05,292.19L429.63,292.82L430.21,293.56L430.79,296.19L431.37,293.79L431.95,294.42L432.53,293.18L433.11,290.03L433.69,293.84L434.27,294.25L434.85,296.26L436.6,276.84L437.18,281.17L438.92,293.14L439.5,290.58L441.24,294.68L441.82,289.61L442.98,265.02L443.56,259.17L444.72,287.78L445.31,282.59L446.47,290.36L447.05,293.52L447.63,291.06L448.21,291.71L448.79,294.37L449.95,293.09L450.53,295.37L451.11,293.19L451.69,295.6L452.27,294.28L452.85,295.21L454.59,295.99L455.18,297.04L455.76,297.67L456.34,296.39L456.92,295L457.5,261.37L458.08,257.47L458.66,267.07L459.82,289.57L460.4,286.49L460.98,289.24L461.56,281.74L462.72,294.08L463.3,293.08L463.88,295.15L464.46,293L465.05,287.91L465.63,293.88L466.21,294.62L466.79,293.02L467.37,290.12L467.95,293.13L470.27,298.27L470.85,297.68L471.43,295.42L472.01,297.32L473.75,294.22L474.33,272.39L474.91,249.07L475.5,275.26L476.08,277.65L476.66,272.73L477.24,283.71L477.82,277.91L478.98,293.69L479.56,295.08L480.14,294.25L480.72,295.27L481.3,296.62L481.88,295.97L483.04,296.67L483.62,292.25L484.78,297.3L485.37,296.57L485.95,294.03L486.53,297.08L487.11,298.13L487.69,296.43L488.85,297.63L489.43,296.81L490.59,291.49L491.17,293.44L491.75,287.92L492.33,290.63L492.91,286.43L493.49,265.15L494.07,255.07L494.65,278.64L495.24,280.61L495.82,292.58L496.4,293.56L496.98,292.75L498.72,296.23L499.3,295.53L499.88,298.57L500.46,297.11L501.04,295.45L501.62,297.21L502.2,294.55L502.78,295.98L503.36,295.55L503.94,298.48L505.11,297.66L505.69,296.35L506.85,299.28L507.43,296.7L508.01,294.86L508.59,297.1L509.75,291.64L510.33,298.07L510.91,283.6L511.49,236.48L512.65,290.8L513.23,293.45L514.97,297.37L515.56,297.18L517.3,298.9L517.88,297.33L519.62,299.82L520.2,297.76L521.36,261.16L521.94,269.19L522.52,283.01L523.1,282.77L523.68,288.52L524.26,286.8L524.84,277.2L526.01,289.78L526.59,289.81L527.75,293.02L528.33,292.05L529.49,294.48L530.07,294.79L531.23,296.04L531.81,296.6L532.39,296.11L532.97,294.03L534.13,298.63L534.71,297.67L535.3,298.11L535.88,296.15L536.46,296.94L537.04,299.72L538.2,294.08L538.78,295.83L539.36,298.13L539.94,291.71L540.52,253.25L541.1,281.23L542.26,292.22L542.84,293.34L543.42,291.76L544,293.69L545.17,295.42L545.75,294.49L546.91,295.77L547.49,294.19L548.07,294.59L548.65,296.35L549.81,298.3L550.39,298.78L550.97,296.65L551.55,299.1L552.71,292.59L553.29,297.36L554.45,298.31L555.04,295.49L555.62,297.63L556.2,296.86L557.36,299.01L557.94,298.09L558.52,298.45L559.1,299.81L560.26,296.32L560.84,298.21L562,293.04L562.58,295.06L563.16,297.23L563.74,293.3L564.32,274.64L564.9,289.19L566.07,296.51L566.65,294.53L567.23,288.12L567.81,297.34L568.39,296.78L568.97,297.76L569.55,297.27L570.13,298.49L570.71,297.09L571.29,299.22L572.45,296.59L573.03,297.94L574.19,299.62L574.77,298.77L576.52,293.11L577.1,287.18L579.42,297.6L580,297.12" style="vector-effect: non-scaling-stroke; fill: none; stroke: rgb(31, 119, 180); stroke-opacity: 1; stroke-width: 2px; opacity: 1;"/><g class="points"/></g><g class="trace scatter trace4f63ba" style="stroke-miterlimit: 2; opacity: 1;"><path class="js-line" d="M0,313.5L0,74.04L0.58,76.84L1.16,74.28L3.48,79.38L4.06,79.49L4.64,76.08L5.23,77.68L6.39,84.56L6.97,78.03L8.13,83.16L8.71,80.06L9.29,83.67L9.87,82.99L10.45,73.56L11.03,77.98L11.61,73.73L12.77,71.79L13.35,76.18L13.93,71.73L14.51,79.95L16.26,87.89L16.84,85.01L17.42,81.08L18,85.62L18.58,79.04L19.16,81.04L19.74,79.31L20.32,85.19L20.9,89.39L21.48,88.88L22.06,82.93L22.64,83.11L23.22,91.43L24.38,92.47L24.96,90.77L27.29,97.99L27.87,99.82L29.03,90.82L29.61,104.28L30.19,100.52L30.77,104.91L31.35,102.14L31.93,110.64L32.51,106.55L33.09,109.79L33.67,104.9L34.25,112.74L35.42,114.8L36,109.04L36.58,105.98L37.16,108.59L38.32,88.27L38.9,108.64L39.48,105.5L40.06,113.12L40.64,112.24L41.22,123.34L42.38,129.23L42.96,119L44.7,131.99L45.29,129.37L46.45,72.14L47.03,109.84L47.61,94.79L48.19,118.11L49.35,128.45L49.93,129.72L51.09,129.96L51.67,135.55L52.25,137.92L52.83,128.71L53.41,135.43L53.99,133.07L54.57,128.8L55.16,117.05L55.74,120.02L56.32,134.33L56.9,128.5L57.48,137.03L58.64,134.2L59.22,140.25L60.38,104.13L60.96,138.37L62.12,126.83L62.7,103.71L63.28,98.85L63.86,115.08L64.44,114.95L65.03,101.9L65.61,112.08L66.19,98.96L66.77,135.11L67.35,131.15L67.93,138.34L68.51,145.02L69.09,142.49L70.25,122.79L70.83,138.49L71.41,124.89L71.99,140.25L73.15,142.03L73.73,140.91L74.31,143.33L74.89,140.47L75.48,150.36L76.06,145.64L76.64,148.57L77.22,140.62L78.38,143.88L78.96,133.11L79.54,150.86L80.12,111.73L80.7,103.71L81.28,133.07L81.86,133.53L82.44,139.4L83.02,129.33L83.6,134.41L84.76,143.74L85.35,148.3L85.93,146.93L86.51,141.19L88.25,149L88.83,145.53L89.99,155.88L90.57,140.74L91.15,154.96L91.73,127.81L92.31,141.92L92.89,103.78L93.47,141.29L94.05,140.74L94.63,150.38L95.22,154.36L95.8,153.16L96.38,132.44L96.96,132.85L97.54,142.82L98.12,136.29L98.7,139.3L99.28,136.21L99.86,143.89L101.02,154.38L101.6,148.32L102.18,136.17L102.76,160.82L103.34,157.81L103.92,160.12L105.09,155.7L105.67,153.63L106.25,161.11L106.83,149.61L107.41,140.71L107.99,142.52L108.57,159.55L109.15,148.07L109.73,119.36L110.31,152.96L110.89,141.96L111.47,131.96L112.05,145.06L112.63,155.75L113.21,151.8L114.37,134.8L114.95,138.06L116.12,165.88L116.7,135.46L117.86,155.7L118.44,150.07L119.02,148.88L119.6,160.21L120.18,150.93L120.76,154.89L121.92,141.64L122.5,143.54L123.08,162.29L123.66,144.47L124.24,150.42L124.82,165.4L125.99,126.46L126.57,157.52L127.15,168.03L127.73,154.43L128.89,165.87L129.47,145.56L130.05,141.33L130.63,143.95L131.79,169.64L132.37,159.82L133.53,88.2L134.11,176.11L135.28,163.45L135.86,162.54L136.44,162.06L137.02,156.7L138.18,170.44L138.76,162.77L139.34,156.81L139.92,165.34L140.5,166.43L141.08,179.1L141.66,184.3L142.24,170.85L142.82,163.75L143.4,179.25L143.98,159.37L144.56,173.5L145.15,157.42L145.73,171.7L146.31,172.35L146.89,154.39L148.63,125.72L149.21,161.87L149.79,174.18L150.37,153.42L150.95,152.84L151.53,138.16L152.11,116.85L152.69,140.03L153.27,120.27L153.85,147.43L154.43,182.76L155.02,122.01L156.18,152.74L156.76,131.57L157.34,160.11L157.92,153.78L158.5,154.43L159.08,164.32L159.66,152.79L160.24,145.63L160.82,154.91L161.4,108.37L161.98,158.02L162.56,127.68L163.14,160.63L164.88,141.23L165.47,157.25L166.05,123.17L166.63,131.68L167.21,153.1L167.79,160.85L168.37,158.53L170.11,124.29L170.69,173.4L171.27,158.63L171.85,87.54L173.01,181.11L173.59,168.8L174.17,146.35L174.75,16.5L175.92,146.29L176.5,130.33L177.66,169.92L178.24,145.01L178.82,170.68L179.4,170.51L179.98,169.3L181.14,185.16L181.72,169.47L182.3,171.82L182.88,166L184.04,175.62L184.62,189.48L185.79,122.09L186.37,177.52L186.95,183.25L187.53,105.15L188.11,178.62L188.69,175.08L189.27,186.98L189.85,182.76L190.43,192.19L191.01,197.67L191.59,191.2L192.17,194.57L192.75,191.87L193.91,180.04L194.49,186.18L195.08,169.92L195.66,176.79L196.24,194.28L196.82,188.76L197.98,181.93L198.56,193.71L199.14,181.49L199.72,198L200.3,201.65L200.88,181L201.46,171.97L202.04,107.84L202.62,136.56L203.2,102.18L204.36,157.75L204.94,152.61L205.53,190.86L206.11,147.58L207.27,186.21L207.85,176.37L208.43,160.22L209.01,172.25L209.59,157.12L210.17,164.72L211.33,178.6L211.91,177.25L213.07,175.1L213.65,168.74L214.23,171.65L214.81,164.72L215.4,114.98L215.98,172.15L216.56,138.71L217.14,178.37L217.72,149.44L218.3,187.72L219.46,123.2L220.04,179.32L220.62,122.41L221.2,126.78L221.78,137.83L222.36,153.08L222.94,190.71L224.1,172.61L224.68,174.32L225.27,170.77L225.85,185.29L227.01,196.87L227.59,107.04L228.75,142.43L229.33,170.08L230.49,119.42L231.07,176.49L232.23,194.65L232.81,190.73L233.39,180.22L233.97,193.35L234.55,193.13L235.14,184.54L235.72,172.47L236.3,194.94L236.88,166.26L237.46,167.22L238.04,189.11L238.62,189.15L239.2,176.94L239.78,186.06L240.36,180.79L241.52,155.7L242.1,193.65L242.68,160.77L243.26,165.43L243.84,138.15L245.01,192.33L245.59,139.77L246.17,195.09L246.75,165.45L248.49,195.74L249.07,187.11L249.65,191.26L250.23,172.19L250.81,150.23L251.39,151.49L251.97,173.85L252.55,185.78L253.13,155.32L253.71,156.65L254.29,186.3L254.87,175.32L255.46,182.58L256.04,197.6L256.62,192.48L257.2,192.03L257.78,199.22L258.36,204.41L258.94,203.46L259.52,205.27L260.1,205.78L260.68,196.71L261.26,173.26L261.84,194.38L262.42,197.08L263,189.55L263.58,167.27L264.16,186.16L264.74,187.19L265.33,186.25L265.91,192.37L266.49,148.78L267.07,191.3L267.65,157.23L268.23,177.09L268.81,172.36L269.39,178.01L271.13,197.81L271.71,178.45L272.29,180.41L272.87,190.89L273.45,197.16L274.03,192.76L274.61,186.9L275.2,189.69L275.78,183.73L276.36,196.51L276.94,211.45L277.52,198.37L278.1,189.54L278.68,192.21L279.26,148.48L279.84,207.93L280.42,201.63L281,205.55L281.58,200.29L282.16,224.27L282.74,203.38L283.32,204.07L283.9,194.93L284.48,195.32L285.07,179.65L285.65,176.47L286.23,148.31L287.39,166.08L287.97,148.32L289.13,196.46L289.71,172.59L290.29,174.07L290.87,164.06L291.45,185.68L292.03,153.21L292.61,200.14L293.19,166.19L293.77,198.89L294.35,152.06L295.52,204.02L296.1,189.07L296.68,174.61L297.26,187.01L297.84,144.42L298.42,201.72L299.58,120.47L300.16,178.19L300.74,187.09L301.32,185.19L301.9,169.34L302.48,173.04L303.06,185.91L304.22,163.39L304.8,166.56L305.97,179.27L306.55,167.72L307.71,186.98L308.29,184.56L309.45,182.02L310.03,183.66L311.19,189.7L311.77,183.49L312.93,166.73L313.51,166.29L314.67,192.01L315.26,177.49L315.84,197.68L316.42,179.05L317,205.1L317.58,183.08L319.32,198.78L319.9,186.18L320.48,175.64L321.06,206.94L322.8,161.27L323.38,181.21L323.96,172.9L324.54,46.31L325.13,85.47L325.71,194.04L326.87,184.91L327.45,205.5L328.03,184.65L328.61,196.15L330.35,178.6L330.93,183.57L331.51,178.97L332.09,191.75L332.67,190.38L333.25,184.79L334.99,195.39L335.58,182.01L336.74,167.11L337.32,172.22L338.48,179.27L339.06,146.11L339.64,110.91L340.22,141.51L340.8,145.85L341.38,160.98L341.96,147.93L342.54,169.35L343.7,194.45L344.28,171.02L345.45,179.59L346.03,152.52L346.61,111.01L347.19,181.69L347.77,178.29L348.35,167.49L348.93,181.55L349.51,169.58L350.09,178.41L350.67,163.44L351.25,145.86L351.83,197.94L352.99,138.62L353.57,161.33L354.15,198.68L354.73,147.8L355.32,170.92L355.9,154.81L357.06,173.05L357.64,175.22L358.22,193.71L358.8,182.84L359.38,141.72L359.96,180.07L361.7,124.07L362.28,186.35L362.86,212.31L363.44,177.51L364.6,188.99L365.19,187.71L365.77,127.84L366.35,177.23L367.51,188.02L368.09,193.33L368.67,190.36L369.25,181.45L369.83,177.6L370.41,200.64L371.57,159.64L372.15,189.6L372.73,180.99L373.31,193.84L374.47,182.51L375.06,187.76L375.64,194.74L376.22,168.12L376.8,154.14L377.38,187.99L377.96,177.42L378.54,181.71L379.12,176.3L379.7,155.17L380.28,151.73L380.86,176.8L381.44,160.77L382.02,175.67L383.18,156.58L383.76,180.95L384.34,189.54L384.92,117.37L385.51,127.92L386.09,154.59L386.67,127.13L387.25,137.41L387.83,127.73L388.41,138.68L388.99,137.37L389.57,146.87L390.73,168.82L391.31,163.08L391.89,150.59L392.47,170.95L393.05,151.39L393.63,158.15L394.21,123.06L394.79,175.62L395.38,170.61L395.96,138.05L396.54,99.52L397.12,103.55L397.7,121.14L398.28,162.44L398.86,154.48L399.44,178.65L400.02,153.93L400.6,166.73L401.18,177.01L401.76,156.64L402.34,181.37L402.92,171.08L404.08,175.15L404.66,157.95L405.25,169.12L405.83,162.66L406.41,158.39L406.99,57.07L408.15,167.49L408.73,151.78L409.31,89.05L409.89,116.35L410.47,180.42L411.05,164.72L411.63,160.69L412.21,97.97L412.79,153.49L413.37,170.49L413.95,169.7L414.53,154.61L415.12,152.87L415.7,138.26L416.28,133.22L416.86,138.35L418.02,195.54L418.6,183.27L419.18,192.04L419.76,178.78L420.34,170.54L420.92,182.25L422.08,196.44L422.66,167.28L423.24,194.95L423.82,186.63L424.4,187.92L424.98,183.46L425.57,197.41L426.15,188.21L426.73,188.49L427.31,136.19L428.47,163.74L429.05,155.57L429.63,169.3L430.21,157.52L431.37,171.65L431.95,171.49L432.53,163.64L433.11,173.31L433.69,168.66L434.27,147.59L435.44,161.16L436.02,162.02L436.6,168.75L437.18,153.25L437.76,148.52L438.34,118.58L438.92,139.62L439.5,136.78L440.08,146.44L441.24,103.15L441.82,155.01L442.98,170.02L443.56,203.02L444.14,203.8L444.72,182.07L445.31,186.37L445.89,163.43L447.05,184.5L447.63,175.57L448.21,183.07L448.79,182.25L449.37,185.91L449.95,175.73L450.53,186.28L451.11,195.64L451.69,191.77L452.27,199.46L452.85,179.84L453.43,178.34L454.01,148.79L455.18,185.94L455.76,180.92L456.34,103.87L456.92,181.91L458.08,135.98L458.66,160.06L459.24,173.52L459.82,137.79L461.56,193.06L462.14,191.29L462.72,169.27L463.3,171.78L463.88,188.99L464.46,179.42L465.05,184.32L465.63,148.13L466.21,182.54L466.79,195.67L467.37,169.92L467.95,170.09L468.53,172.26L469.11,168.01L469.69,175.43L470.27,183.31L470.85,179.91L471.43,158.37L472.01,173.67L472.59,158.16L473.17,170.6L473.75,167.33L474.33,155.26L474.91,183.33L475.5,161.94L476.66,157.04L477.24,164.43L478.4,160.24L478.98,163.29L479.56,162.65L480.14,171.79L480.72,157.55L481.3,165.48L481.88,161.16L482.46,164.43L483.04,154.61L483.62,155.13L484.2,161.43L485.95,173.47L486.53,170.2L487.11,138L487.69,163.25L488.27,158.76L488.85,163.6L489.43,173.37L490.01,161.5L490.59,146.93L491.17,168.21L491.75,137.37L492.33,151.98L493.49,85.17L494.07,139.25L494.65,123.74L495.24,139.32L495.82,146.27L496.4,140.28L499.3,151.42L499.88,151.82L500.46,152.73L501.04,150.52L502.2,166.25L502.78,158.97L503.36,166.22L503.94,160.78L504.52,167.58L505.11,155.73L505.69,179.88L506.27,150.8L506.85,169.64L507.43,140.41L508.01,157.61L508.59,131.48L509.17,161.94L509.75,154.62L510.33,160.97L510.91,120.88L511.49,162.24L512.07,159.89L512.65,179.39L514.39,162.65L514.97,168.07L516.14,139.44L516.72,143.14L517.3,138.44L517.88,156.54L518.46,155.67L519.04,170.87L520.2,142.62L520.78,131.8L521.36,182.46L521.94,178.27L522.52,177.03L523.1,203.49L523.68,194.79L524.84,182.84L525.43,157.36L526.01,175.57L526.59,175.09L527.17,179.5L528.33,172.06L528.91,155.17L529.49,173.84L530.07,172.82L530.65,160.3L531.23,162.29L531.81,142.54L532.97,151.29L533.55,147.48L534.13,138.45L534.71,148.91L535.3,138.34L535.88,143.19L537.04,166.08L537.62,155.81L538.2,147.65L538.78,155.64L539.36,128.08L539.94,184.75L540.52,167.48L541.1,179.35L542.26,164.41L542.84,186.83L543.42,183.33L544,191.41L544.58,186.28L545.17,187.24L545.75,172.78L546.33,181.62L546.91,172.85L547.49,172.44L548.07,180.19L549.23,170.16L549.81,176.51L550.39,172.85L550.97,153.18L552.13,174.9L552.71,169.1L553.29,159.13L553.87,175.25L555.04,165.92L555.62,158.17L556.2,159.3L556.78,140.27L557.36,136.72L557.94,157.64L558.52,167.86L559.1,156.04L559.68,148.6L560.26,169.41L561.42,138.43L562,179.15L562.58,185.33L563.16,158.92L563.74,167.44L564.32,187.37L564.9,188.25L565.49,174.65L566.07,157.26L566.65,175.38L567.23,169.49L567.81,178.6L568.39,184.58L568.97,179.59L569.55,187.35L570.13,178.42L570.71,175.21L571.29,148.56L571.87,150.13L572.45,158.91L573.61,164.3L574.19,169.77L574.77,166.07L575.36,175.26L575.94,181.82L576.52,139.57L577.68,169.94L578.26,168.94L579.42,164.71L580,142.01" style="vector-effect: non-scaling-stroke; fill: none; stroke: rgb(255, 127, 14); stroke-opacity: 1; stroke-width: 2px; opacity: 1;"/><g class="points"/></g></g></g><g class="overplot"/><path class="xlines-above crisp" d="M0,0" style="fill: none;"/><path class="ylines-above crisp" d="M0,0" style="fill: none;"/><g class="overlines-above"/><g class="xaxislayer-above"><g class="xtick"><text text-anchor="middle" x="0" y="403" transform="translate(60,0)" style="font-family: 'Open Sans', verdana, arial, sans-serif; font-size: 12px; fill: rgb(68, 68, 68); fill-opacity: 1; white-space: pre;">0</text></g><g class="xtick"><text text-anchor="middle" x="0" y="403" transform="translate(176.12,0)" style="font-family: 'Open Sans', verdana, arial, sans-serif; font-size: 12px; fill: rgb(68, 68, 68); fill-opacity: 1; white-space: pre;">200</text></g><g class="xtick"><text text-anchor="middle" x="0" y="403" transform="translate(292.23,0)" style="font-family: 'Open Sans', verdana, arial, sans-serif; font-size: 12px; fill: rgb(68, 68, 68); fill-opacity: 1; white-space: pre;">400</text></g><g class="xtick"><text text-anchor="middle" x="0" y="403" transform="translate(408.35,0)" style="font-family: 'Open Sans', verdana, arial, sans-serif; font-size: 12px; fill: rgb(68, 68, 68); fill-opacity: 1; white-space: pre;">600</text></g><g class="xtick"><text text-anchor="middle" x="0" y="403" transform="translate(524.46,0)" style="font-family: 'Open Sans', verdana, arial, sans-serif; font-size: 12px; fill: rgb(68, 68, 68); fill-opacity: 1; white-space: pre;">800</text></g></g><g class="yaxislayer-above"><g class="ytick"><text text-anchor="end" x="59" y="4.199999999999999" transform="translate(0,373.5)" style="font-family: 'Open Sans', verdana, arial, sans-serif; font-size: 12px; fill: rgb(68, 68, 68); fill-opacity: 1; white-space: pre;">0</text></g><g class="ytick"><text text-anchor="end" x="59" y="4.199999999999999" transform="translate(0,309.86)" style="font-family: 'Open Sans', verdana, arial, sans-serif; font-size: 12px; fill: rgb(68, 68, 68); fill-opacity: 1; white-space: pre;">0.02</text></g><g class="ytick"><text text-anchor="end" x="59" y="4.199999999999999" transform="translate(0,246.23)" style="font-family: 'Open Sans', verdana, arial, sans-serif; font-size: 12px; fill: rgb(68, 68, 68); fill-opacity: 1; white-space: pre;">0.04</text></g><g class="ytick"><text text-anchor="end" x="59" y="4.199999999999999" transform="translate(0,182.59)" style="font-family: 'Open Sans', verdana, arial, sans-serif; font-size: 12px; fill: rgb(68, 68, 68); fill-opacity: 1; white-space: pre;">0.06</text></g><g class="ytick"><text text-anchor="end" x="59" y="4.199999999999999" transform="translate(0,118.95)" style="font-family: 'Open Sans', verdana, arial, sans-serif; font-size: 12px; fill: rgb(68, 68, 68); fill-opacity: 1; white-space: pre;">0.08</text></g></g><g class="overaxes-above"/></g></g><g class="polarlayer"/><g class="ternarylayer"/><g class="geolayer"/><g class="pielayer"/><g class="glimages"/><defs id="topdefs-08e2e9"><g class="clips"/></defs><g class="layer-above"><g class="imagelayer"/><g class="shapelayer"/></g><g class="infolayer"><g class="g-gtitle"/><g class="g-xtitle"/><g class="g-ytitle"/></g></svg>